<svg width="390" height="360" viewBox="0 0 390 360" fill="none" xmlns="http://www.w3.org/2000/svg">
<rect x="202.152" y="29.748" width="160.848" height="207.152" rx="2.43709" fill="#DCDCDC"/>
<rect x="185.093" y="20" width="160.848" height="207.152" rx="2.43709" fill="#EBEBEB"/>
<rect x="215.557" y="115.045" width="30.4636" height="24.3709" fill="#12A363"/>
<rect x="250.895" y="115.045" width="30.4636" height="24.3709" fill="#12A363"/>
<rect x="286.232" y="115.045" width="30.4636" height="24.3709" fill="#12A363"/>
<rect x="215.557" y="144.291" width="30.4636" height="24.3709" fill="#12A363"/>
<rect x="250.895" y="144.291" width="30.4636" height="24.3709" fill="#12A363"/>
<rect x="286.232" y="144.291" width="30.4636" height="24.3709" fill="#12A363"/>
<rect x="215.557" y="173.535" width="30.4636" height="24.3709" fill="#12A363"/>
<rect x="250.895" y="173.535" width="30.4636" height="24.3709" fill="#12A363"/>
<rect x="286.232" y="173.535" width="30.4636" height="24.3709" fill="#12A363"/>
<rect x="179" y="40.7148" width="103.576" height="32.9007" fill="#12A363"/>
<path d="M193.935 64.4961L198.048 57.0874L194.188 50.127H196.703L198.438 53.5C198.62 53.8379 198.789 54.1758 198.945 54.5138C199.114 54.8517 199.316 55.2417 199.55 55.6836H199.628C199.81 55.2417 199.978 54.8517 200.134 54.5138C200.29 54.1758 200.453 53.8379 200.622 53.5L202.299 50.127H204.677L200.836 57.1848L204.95 64.4961H202.435L200.544 60.9282C200.362 60.5643 200.173 60.1938 199.978 59.8169C199.784 59.427 199.576 59.0175 199.355 58.5886H199.277C199.082 59.0175 198.893 59.427 198.711 59.8169C198.529 60.1938 198.347 60.5643 198.165 60.9282L196.333 64.4961H193.935ZM208.103 64.4961V50.127H210.364V62.5659H216.447V64.4961H208.103ZM223.453 64.769C222.466 64.769 221.53 64.5806 220.646 64.2036C219.775 63.8267 219.008 63.3068 218.345 62.6439L219.671 61.0842C220.191 61.5911 220.782 62.0005 221.445 62.3125C222.121 62.6244 222.81 62.7804 223.512 62.7804C224.37 62.7804 225.026 62.5919 225.481 62.215C225.949 61.838 226.183 61.3506 226.183 60.7527C226.183 60.3108 226.085 59.9599 225.89 59.6999C225.696 59.427 225.423 59.1995 225.072 59.0175C224.734 58.8356 224.344 58.6471 223.902 58.4521L221.913 57.5943C221.445 57.3993 220.984 57.1458 220.529 56.8339C220.087 56.509 219.717 56.106 219.418 55.6251C219.132 55.1312 218.989 54.5333 218.989 53.8314C218.989 53.0775 219.19 52.4016 219.593 51.8037C219.996 51.2059 220.555 50.7379 221.27 50.4C221.985 50.049 222.797 49.8736 223.707 49.8736C224.552 49.8736 225.351 50.036 226.105 50.361C226.859 50.6859 227.502 51.1279 228.035 51.6868L226.885 53.1295C226.43 52.7266 225.942 52.4146 225.423 52.1937C224.916 51.9597 224.344 51.8427 223.707 51.8427C222.966 51.8427 222.381 52.0117 221.952 52.3497C221.523 52.6746 221.309 53.1165 221.309 53.6754C221.309 54.0914 221.419 54.4358 221.64 54.7088C221.861 54.9687 222.147 55.1897 222.498 55.3716C222.862 55.5406 223.232 55.7031 223.609 55.8591L225.579 56.6974C226.15 56.9314 226.657 57.2173 227.099 57.5553C227.541 57.8932 227.886 58.3026 228.133 58.7836C228.38 59.2645 228.503 59.8624 228.503 60.5773C228.503 61.3441 228.302 62.046 227.899 62.6829C227.496 63.3068 226.917 63.8137 226.163 64.2036C225.41 64.5806 224.506 64.769 223.453 64.769Z" fill="white"/>
<path d="M12 166H230.155L259.522 331.414H41.367L12 166Z" fill="#6B6B6B"/>
<rect x="41.9663" y="331.414" width="326.034" height="14.3838" fill="#9C9C9C"/>
</svg>
